# xmcd CD database file
#
# Track frame offsets:
#	150
#	10855
#	23837
#	33027
#	43640
#	56492
#	71417
#	82335
#	96322
#	109142
#	119400
#	136855
#	149417
#	159952
#	171255
#	183025
#	199885
#	212605
#	227802
#	244892
#	254680
#	269602
#	283330
#	293605
#	306140
#	316705
#
# Disc length: 4436 seconds
#
# Revision: 1
# Processed by: cddbd v1.5.1PL2 Copyright (c) Steve Scherf et al.
# Submitted via: CDex 1.51
#
DISCID=7b11521a
DTITLE=50 Years Of Hits - 50 Years Of Hits Vol 2
DYEAR=1900
DGENRE=Country
TTITLE0=Blue Eyes Crying In The Rain - Willie Nelson
TTITLE1=Bonaparte's Retreat - Glen Campbell
TTITLE2=Bread and Butter - Newbeats
TTITLE3=Break My MInd - George Hamilton IV
TTITLE4=Bumming Around - Jimmy Dean
TTITLE5=Burnin' A Hole In My POcket - Skip Ewing
TTITLE6=Cathy's Clown - Everly Brothers
TTITLE7=Cathy's Clown - Reba McEntire
TTITLE8=Chattanoogie Shoe Shine Boy - Red Foley
TTITLE9=Claudette - Everly Brothers
TTITLE10=Coast of Colorado - Skip Ewing
TTITLE11=Cold Col Heart - Hank Williams
TTITLE12=Country Green - Don Gibson
TTITLE13=Crazy Heart - Hank Williams
TTITLE14=Cry Cry darling - Jimmy C. Newman
TTITLE15=Crying - Don Mclean
TTITLE16=Crying - Roy Orbison
TTITLE17=Darlene - T. Graham Brown
TTITLE18=Dear Me - Lorrie Morgan
TTITLE19=Diggy Liggy Lo - Rusty and Doug
TTITLE20=Does Ft. Worth Ever Cross Your Mind - George Strait
TTITLE21=Don't Be Angry - Stonewall Jackson
TTITLE22=Don't Give In To Him - Gary Pucket and The Union Gap
TTITLE23=Don't Let The Stars Get In Your Eyes - Ray Price
TTITLE24=Don't Tell Me Your Troubles - Don Gibson
TTITLE25=Drinking Champagne - George Strait
EXTD=
EXTT0=
EXTT1=
EXTT2=
EXTT3=
EXTT4=
EXTT5=
EXTT6=
EXTT7=
EXTT8=
EXTT9=
EXTT10=
EXTT11=
EXTT12=
EXTT13=
EXTT14=
EXTT15=
EXTT16=
EXTT17=
EXTT18=
EXTT19=
EXTT20=
EXTT21=
EXTT22=
EXTT23=
EXTT24=
EXTT25=
PLAYORDER=
